<svg xmlns="http://www.w3.org/2000/svg" width="10.325" height="11.8" viewBox="0 0 10.325 11.8">
  <path id="Icon_awesome-calendar-alt" data-name="Icon awesome-calendar-alt" d="M0,10.694A1.107,1.107,0,0,0,1.106,11.8H9.219a1.107,1.107,0,0,0,1.106-1.106V4.425H0ZM7.375,6.177A.277.277,0,0,1,7.652,5.9h.922a.277.277,0,0,1,.277.277V7.1a.277.277,0,0,1-.277.277H7.652A.277.277,0,0,1,7.375,7.1Zm0,2.95a.277.277,0,0,1,.277-.277h.922a.277.277,0,0,1,.277.277v.922a.277.277,0,0,1-.277.277H7.652a.277.277,0,0,1-.277-.277Zm-2.95-2.95A.277.277,0,0,1,4.7,5.9h.922a.277.277,0,0,1,.277.277V7.1a.277.277,0,0,1-.277.277H4.7A.277.277,0,0,1,4.425,7.1Zm0,2.95A.277.277,0,0,1,4.7,8.85h.922a.277.277,0,0,1,.277.277v.922a.277.277,0,0,1-.277.277H4.7a.277.277,0,0,1-.277-.277Zm-2.95-2.95A.277.277,0,0,1,1.752,5.9h.922a.277.277,0,0,1,.277.277V7.1a.277.277,0,0,1-.277.277H1.752A.277.277,0,0,1,1.475,7.1Zm0,2.95a.277.277,0,0,1,.277-.277h.922a.277.277,0,0,1,.277.277v.922a.277.277,0,0,1-.277.277H1.752a.277.277,0,0,1-.277-.277ZM9.219,1.475H8.113V.369A.37.37,0,0,0,7.744,0H7.006a.37.37,0,0,0-.369.369V1.475H3.688V.369A.37.37,0,0,0,3.319,0H2.581a.37.37,0,0,0-.369.369V1.475H1.106A1.107,1.107,0,0,0,0,2.581V3.688H10.325V2.581A1.107,1.107,0,0,0,9.219,1.475Z" fill="#00154d"/>
</svg>
