<svg xmlns="http://www.w3.org/2000/svg" width="34.999" height="24.499" viewBox="0 0 34.999 24.499">
  <path id="Icon_awesome-user-friends" data-name="Icon awesome-user-friends" d="M10.5,14.5A6.125,6.125,0,1,0,4.375,8.375,6.122,6.122,0,0,0,10.5,14.5Zm4.2,1.75h-.454a8.456,8.456,0,0,1-7.492,0H6.3a6.3,6.3,0,0,0-6.3,6.3v1.575a2.626,2.626,0,0,0,2.625,2.625h15.75A2.626,2.626,0,0,0,21,24.124V22.549A6.3,6.3,0,0,0,14.7,16.25Zm11.55-1.75A5.25,5.25,0,1,0,21,9.25,5.251,5.251,0,0,0,26.249,14.5Zm2.625,1.75h-.208a6.9,6.9,0,0,1-4.834,0h-.208a6.074,6.074,0,0,0-3.046.842,8,8,0,0,1,2.171,5.458v2.1c0,.12-.027.235-.033.35h9.658A2.626,2.626,0,0,0,35,22.374a6.122,6.122,0,0,0-6.125-6.125Z" transform="translate(0 -2.25)" fill="#fafafa"/>
</svg>
