<svg xmlns="http://www.w3.org/2000/svg" width="31.133" height="31.133" viewBox="0 0 31.133 31.133">
  <g id="svgexport-7_10_" data-name="svgexport-7 (10)" transform="translate(0)">
    <g id="Group_433" data-name="Group 433">
      <g id="Group_432" data-name="Group 432">
        <path id="Path_1837" data-name="Path 1837" d="M26.575,4.559a15.567,15.567,0,1,0,0,22.016A15.568,15.568,0,0,0,26.575,4.559ZM17.6,22.335a2.03,2.03,0,0,1-4.061,0V14.213a2.03,2.03,0,1,1,4.061,0ZM15.53,10.742a1.811,1.811,0,0,1-1.925-1.851,1.81,1.81,0,0,1,1.949-1.875,1.867,1.867,0,1,1-.024,3.727Z" transform="translate(0 0)" fill="#00154d"/>
      </g>
    </g>
  </g>
</svg>
