<svg id="vuesax_bold_notification" data-name="vuesax/bold/notification" xmlns="http://www.w3.org/2000/svg" width="31.2" height="31.2" viewBox="0 0 31.2 31.2">
  <g id="notification">
    <path id="Vector" d="M19.538,16.237l-1.3-2.158a4.83,4.83,0,0,1-.52-1.924V8.866a7.682,7.682,0,0,0-4.381-6.929A3.8,3.8,0,0,0,9.983,0,3.849,3.849,0,0,0,6.616,1.976a7.707,7.707,0,0,0-4.29,6.89v3.289a4.714,4.714,0,0,1-.52,1.911L.493,16.237a3.038,3.038,0,0,0,1.7,4.589A24.313,24.313,0,0,0,10.022,22.1a24.66,24.66,0,0,0,7.826-1.261,3.135,3.135,0,0,0,1.69-4.6Z" transform="translate(5.604 2.6)" fill="#00154d"/>
    <path id="Vector-2" data-name="Vector" d="M7.345.013A3.919,3.919,0,0,1,3.666,2.6,3.855,3.855,0,0,1,.91,1.443,3.589,3.589,0,0,1,0,0C.169.026.338.039.52.065c.3.039.611.078.923.1.741.065,1.495.1,2.249.1S5.174.234,5.9.169c.273-.026.546-.039.806-.078C6.916.065,7.124.039,7.345.013Z" transform="translate(11.934 26)" fill="#00154d"/>
    <path id="Vector-3" data-name="Vector" d="M0,0H31.2V31.2H0Z" transform="translate(31.2 31.2) rotate(180)" fill="none" opacity="0"/>
  </g>
</svg>
