<svg xmlns="http://www.w3.org/2000/svg" width="43.101" height="43.111" viewBox="0 0 43.101 43.111">
  <g id="svgexport-6_66_" data-name="svgexport-6 (66)" transform="translate(-0.057 0)">
    <path id="Path_1765" data-name="Path 1765" d="M271.909,20.927h-3.8a1.049,1.049,0,0,1-1.046-1.046l-.523-8.861s-.846-7.34,3.542-8.3c0,0,1.784-3.472,7.5-2.36a2.233,2.233,0,0,1,.229.067,8.724,8.724,0,0,1,5.223,4.452c1.377,2.78.928,4.843.377,15.007a1.049,1.049,0,0,1-1.046,1.046h-4.042" transform="translate(-243.985 -0.125)" fill="#7f7369"/>
    <path id="Path_1766" data-name="Path 1766" d="M272.565,20.924V19.68a6.577,6.577,0,0,1-3.94-5.742c-.008-.182-.009-3.958,0-4.027-.039-2.088.284-6.468,3.6-7.2A5.526,5.526,0,0,1,276.537.195c-2.89-.318-4.956.625-6.1,2a3.228,3.228,0,0,0-.361.516c-2.99.657-3.7,4.347-3.6,7.394,0,.013.58,9.761.581,9.771a1.049,1.049,0,0,0,1.046,1.046Z" transform="translate(-243.981 -0.122)" fill="#72655a"/>
    <path id="Path_1767" data-name="Path 1767" d="M19.272,250.072l1.221-10.915c.3-2.073.124-3.316,1.114-4.516a4.5,4.5,0,0,0-1.018-.884l-.031-.008c-1.058-.634-1.949-.66-3.916-1.2h0l-2.011-.963h0v-2.4a6.588,6.588,0,0,1-5.244.014h0l-.009,2.4h0l-2,.953h0c-1.954.538-2.855.566-3.916,1.2l-.031.008a4.176,4.176,0,0,0-1.23,1.168c-.709,1.059-.616,1.677-1.318,7.949h0c-.823,7.47-.831,7.161-.822,7.668v0A2.326,2.326,0,0,0,2.465,253h0c.137,0,19.025,0,19.142,0C20.213,252.972,19.107,251.978,19.272,250.072Z" transform="translate(0 -209.886)" fill="#dd9a5e"/>
    <g id="Group_310" data-name="Group 310" transform="translate(0.058 19.311)">
      <path id="Path_1768" data-name="Path 1768" d="M2.254,292.567l.806-7.2c.719-7.235.577-7.8,1.318-8.9a3.737,3.737,0,0,1,.83-.881,5.837,5.837,0,0,0-1.737.659l-.031.008a3.865,3.865,0,0,0-1.878,3.127L.086,292.567a4.726,4.726,0,0,0-.016.473,2.326,2.326,0,0,0,2.407,2.452H4.644C3,295.491,2.107,294.267,2.254,292.567Z" transform="translate(-0.069 -271.692)" fill="#d38d54"/>
      <path id="Path_1769" data-name="Path 1769" d="M112.924,233.795v-3.929a6.417,6.417,0,0,1-2.16-.521l-.009,2.4h0Z" transform="translate(-101.435 -229.345)" fill="#d38d54"/>
    </g>
    <path id="Path_1770" data-name="Path 1770" d="M250.454,239.728a3.875,3.875,0,0,0-1.878-3.127l-.031-.008c-1.114-.667-1.924-.64-5.684-1.642a.569.569,0,0,1-.243-.522V232.3a6.59,6.59,0,0,1-5.244-.011v2.141a.569.569,0,0,1-.243.522c-3.735,1-4.566.972-5.684,1.642l-.031.008a3.875,3.875,0,0,0-1.878,3.127c-1.546,13.942-1.5,13.144-1.492,13.657a2.317,2.317,0,0,0,2.406,2.455H249.54a2.319,2.319,0,0,0,2.407-2.455C251.955,252.872,251.995,253.616,250.454,239.728Z" transform="translate(-208.79 -212.729)" fill="#eab883"/>
    <path id="Path_1771" data-name="Path 1771" d="M230.232,292.056c-.009-.5-.037.149,1.492-14.438a3.867,3.867,0,0,1,1.841-3.1,7.068,7.068,0,0,0-2.1.749l-.031.008a3.876,3.876,0,0,0-1.878,3.127c-1.547,14.032-1.492,12.98-1.492,13.66a2.325,2.325,0,0,0,2.407,2.452h2.168A2.318,2.318,0,0,1,230.232,292.056Z" transform="translate(-208.808 -251.4)" fill="#d8a373"/>
    <path id="Path_1772" data-name="Path 1772" d="M260.089,245.716c-.7-6.178-.666-6.106-.776-6.641a3.766,3.766,0,0,0-1.772-2.474l-.031-.008c-1.114-.667-1.924-.64-5.684-1.642a.569.569,0,0,1-.243-.522V232.3h0v-.011a6.531,6.531,0,0,1-5.244,0v.011h0v2.13a.569.569,0,0,1-.243.522c-3.735.995-4.566.972-5.684,1.642l-.031.008a3.885,3.885,0,0,0-1.878,3.127l-.67,5.988,4.224.443a.425.425,0,0,1,.38.444l-.464,9.236h14l-.486-9.2a.462.462,0,0,1,.413-.484Z" transform="translate(-217.755 -212.729)" fill="#f1cb06"/>
    <path id="Path_1773" data-name="Path 1773" d="M237.831,284.387l2.1.22c.747-6.919.7-6.948.845-7.642a3.751,3.751,0,0,1,1.735-2.451,7.285,7.285,0,0,0-2.1.749l-.031.008a3.762,3.762,0,0,0-1.771,2.474C238.471,278.4,238.5,278.546,237.831,284.387Z" transform="translate(-217.753 -251.4)" fill="#d5ba2b"/>
    <path id="Path_1774" data-name="Path 1774" d="M29.526,259.883l-.031-.008c-1.061-.635-1.966-.665-3.9-1.2l0,0-2.011-.963-.015.022s0-.005,0-.008l-2.623,2.469-2.615-2.474-2,.953h0c-1.954.538-2.856.566-3.916,1.2l-.031.008A3.851,3.851,0,0,0,10.5,263.01L9.833,269l4.143.435a.5.5,0,0,1,.442.517l-.461,9.171h14l-.486-9.2a.463.463,0,0,1,.414-.485l1.107-.116.452-4.038c.3-2.13.13-3.311,1.106-4.507A5.966,5.966,0,0,0,29.526,259.883Z" transform="translate(-8.953 -236.012)" fill="#00154d"/>
    <path id="Path_1775" data-name="Path 1775" d="M12,285.37c.742-7.474.558-8,1.522-9.178a3.82,3.82,0,0,1,.627-.606,5.843,5.843,0,0,0-1.737.659l-.031.008A3.952,3.952,0,0,0,11,277.666c-.618,1.107-.43,1.8-1.169,7.7l2.143.225Z" transform="translate(-8.954 -252.382)" fill="#3b4d7c"/>
    <path id="Path_1776" data-name="Path 1776" d="M323.948,232.561l-1.768-.44a.569.569,0,0,1-.243-.522v-2.39h0V229.2a6.531,6.531,0,0,1-5.244,0v.011h0v2.39a.569.569,0,0,1-.243.522l-1.795.447A5.325,5.325,0,0,0,323.948,232.561Z" transform="translate(-288.109 -209.899)" fill="#eab883"/>
    <path id="SVGCleanerId_0" d="M44.19,10.491c0-2.394-.006-2.3.008-2.615a8.222,8.222,0,0,1,12.911-6.39c3.583,2.5,3.517,5.6,3.52,9" transform="translate(-40.417 0)" fill="#4c4846"/>
    <g id="Group_311" data-name="Group 311" transform="translate(3.773 0)">
      <path id="SVGCleanerId_0_1_" d="M44.19,10.491c0-2.394-.006-2.3.008-2.615a8.222,8.222,0,0,1,12.911-6.39c3.583,2.5,3.517,5.6,3.52,9" transform="translate(-44.19 0)" fill="#4c4846"/>
    </g>
    <path id="Path_1777" data-name="Path 1777" d="M53.23.175A8.216,8.216,0,0,0,44.2,8.068c-.01.3,0,.228-.005,2.547H45.83V8.354A8.222,8.222,0,0,1,53.23.175Z" transform="translate(-40.417 -0.123)" fill="#3f3b39"/>
    <g id="Group_312" data-name="Group 312" transform="translate(3.364 9.511)">
      <path id="Path_1778" data-name="Path 1778" d="M222.012,114.678a1.9,1.9,0,0,1-2.048,1.715v-3.43A1.9,1.9,0,0,1,222.012,114.678Z" transform="translate(-204.755 -112.963)" fill="#dd9a5e"/>
      <path id="Path_1779" data-name="Path 1779" d="M39.335,114.678a1.9,1.9,0,0,0,2.048,1.715v-3.43A1.9,1.9,0,0,0,39.335,114.678Z" transform="translate(-39.335 -112.963)" fill="#dd9a5e"/>
    </g>
    <g id="Group_313" data-name="Group 313" transform="translate(3.363 10.456)">
      <path id="Path_1780" data-name="Path 1780" d="M219.964,125.12v1.542c1.537,0,2.508-1.358,1.829-2.486A2.118,2.118,0,0,1,219.964,125.12Z" transform="translate(-204.754 -124.176)" fill="#d38d54"/>
      <path id="Path_1781" data-name="Path 1781" d="M39.539,124.176c-.68,1.129.3,2.486,1.83,2.486V125.12A2.118,2.118,0,0,1,39.539,124.176Z" transform="translate(-39.319 -124.176)" fill="#d38d54"/>
    </g>
    <path id="Path_1782" data-name="Path 1782" d="M76.116,76.385a2.725,2.725,0,0,1-.9-2.028.94.94,0,0,0-1.134-.929c-.475.073-.966.135-1.445.181a25.4,25.4,0,0,1-6.462-.189.939.939,0,0,0-1.087.936,2.932,2.932,0,0,1-.418,1.462,2.483,2.483,0,0,1-1.1.951c0,4.131-.083,4.691.279,5.891a6.581,6.581,0,0,0,12.86-1.378c.03-.377.022-.218.022-4.513A2.159,2.159,0,0,1,76.116,76.385Z" transform="translate(-58.158 -67.229)" fill="#edae6b"/>
    <path id="Path_1783" data-name="Path 1783" d="M66.092,83.923c-.066-.179-.151-.443-.222-.721-.338-1.323-.236-2.09-.238-5.644,0-.639.43-.678.862-1.212a3.186,3.186,0,0,0,.656-1.961,1.016,1.016,0,0,1,.386-.782c-.472-.047-.955-.108-1.434-.183a.938.938,0,0,0-1.085.9,2.815,2.815,0,0,1-.686,1.855,2.4,2.4,0,0,1-.833.6c0,4.1-.174,5.18.681,6.905a6.471,6.471,0,0,0,1.087,1.569h0a6.567,6.567,0,0,0,3.195,1.891A10.409,10.409,0,0,1,66.092,83.923Z" transform="translate(-58.087 -67.228)" fill="#dd9a5e"/>
    <path id="Path_1784" data-name="Path 1784" d="M135.389,285.24V279.9l-.65.612-.65-.615v5.342a.65.65,0,0,0,1.3,0Z" transform="translate(-122.746 -256.33)" fill="#3b4d7c"/>
    <path id="Path_1785" data-name="Path 1785" d="M144.451,257.712l-2.638,2.483,1.424,1.435a.641.641,0,0,0,.96-.057l2.265-2.9Z" transform="translate(-129.82 -236.013)" fill="#dadada"/>
    <g id="Group_314" data-name="Group 314" transform="translate(11.993 21.699)">
      <path id="Path_1786" data-name="Path 1786" d="M145.463,258.2l-1.013-.485-2.638,2.483.942.95Z" transform="translate(-141.813 -257.712)" fill="#ceccca"/>
      <path id="Path_1787" data-name="Path 1787" d="M161.024,305.829a.642.642,0,0,0,.376.046Z" transform="translate(-159.406 -301.778)" fill="#ceccca"/>
    </g>
    <path id="Path_1788" data-name="Path 1788" d="M88.636,257.829l2.615,2.474-1.424,1.435a.641.641,0,0,1-.96-.057l-2.265-2.9Z" transform="translate(-79.258 -236.12)" fill="#dadada"/>
    <path id="Path_1789" data-name="Path 1789" d="M99.867,260.293l.9.959.942-.95L99.1,257.829l-1.072.5Z" transform="translate(-89.717 -236.12)" fill="#ceccca"/>
    <path id="Path_1790" data-name="Path 1790" d="M318.872,232.923V229.73a6.489,6.489,0,0,1-2.179-.533c-.066,1.9.172,2.735-.243,2.923l-1.795.447a5.7,5.7,0,0,0,1.763,1.854l1.863-.685S318.872,233.443,318.872,232.923Z" transform="translate(-288.109 -209.899)" fill="#d8a373"/>
    <path id="Path_1791" data-name="Path 1791" d="M304.159,90.7a.694.694,0,0,1,.662.693v.5h0a6.944,6.944,0,0,1-2.374,6.023,6.591,6.591,0,0,1-9.806-1.6c-1.29-2.084-.976-3.914-.981-6.8h0v-.333a.817.817,0,0,1,.652-.8,5.268,5.268,0,0,0,2.743-1.577.6.6,0,0,1,.9.029A11.111,11.111,0,0,0,304.159,90.7Z" transform="translate(-267.022 -79.32)" fill="#f7cf9c"/>
    <path id="Path_1792" data-name="Path 1792" d="M293.93,105.856c-.008-.2-.006.259-.006-5.323a5.107,5.107,0,0,1-1.516.594.818.818,0,0,0-.652.8v.333c0,3.14-.266,4.782.981,6.8a6.58,6.58,0,0,0,6.684,3.032A6.583,6.583,0,0,1,293.93,105.856Z" transform="translate(-267.118 -92.068)" fill="#eab883"/>
    <g id="Group_315" data-name="Group 315" transform="translate(25.301 22.662)">
      <path id="Path_1793" data-name="Path 1793" d="M375.729,269.461l-1.269-.316a5.421,5.421,0,0,1-4.648,2.729S375.755,277.818,375.729,269.461Z" transform="translate(-363.923 -269.145)" fill="#d5ba2b"/>
      <path id="Path_1794" data-name="Path 1794" d="M299.872,269.461l1.269-.316a5.421,5.421,0,0,0,4.648,2.729S299.846,277.818,299.872,269.461Z" transform="translate(-299.872 -269.145)" fill="#d5ba2b"/>
    </g>
    <g id="Group_316" data-name="Group 316" transform="translate(25.36 24.348)">
      <path id="Path_1795" data-name="Path 1795" d="M303.6,289.376c-1.049.558-2.257.825-3.031-.211.616,6.286,5.858,1.043,5.858,1.043A5.225,5.225,0,0,1,303.6,289.376Z" transform="translate(-300.573 -289.165)" fill="#d5ba2b"/>
      <path id="Path_1796" data-name="Path 1796" d="M372.639,289.376c1.049.558,2.257.825,3.031-.211-.616,6.286-5.858,1.043-5.858,1.043A5.225,5.225,0,0,0,372.639,289.376Z" transform="translate(-363.982 -289.165)" fill="#d5ba2b"/>
    </g>
  </g>
</svg>
